# xmcd CD database file
#
# Track frame offsets:
#	150
#	20216
#	45769
#	59399
#	73106
#	97562
#	118539
#	142462
#	160886
#	181126
#	201630
#	220603
#	235675
#	255897
#	269780
#	283318
#	296165
#	316113
#	329563
#	341325
#
# Disc length: 4776 seconds
#
# Revision: 0
# Processed by: cddbd v1.5.2PL0 Copyright (c) Steve Scherf et al.
# Submitted via: CDex 1.51
#
DISCID=3612a614
DTITLE=Various Artist - Jazz for Dinner 5, Den Abend mit Musik geniessen
DYEAR=2016
DGENRE=Jazz
TTITLE0=The Way You Want to Live - Gregory Porter
TTITLE1=Can't Live with the World - Laura Mvula
TTITLE2=Somethin' Stupid [Studio Version] - Roger Cicero and Yvonne Catterfeld
TTITLE3=Mei Heaz - Gudrun Mittermeier
TTITLE4=Misty - Stan Getz
TTITLE5=Green and Gold - Lianne La Havas
TTITLE6=King of the City - Joe Jackson
TTITLE7=My World - Lisa Simone
TTITLE8=This Is Where I Leave You - Dirk darmstaedter
TTITLE9=Too Hot to Ignore - Ulita Knaus
TTITLE10=You Are so Beautiful - Max Mutzke
TTITLE11=Another Kind of Blue - Nils Landgren and Michael Wollny
TTITLE12=Funf Schwestern - Ina Müller
TTITLE13=Waiting on the Roof - Sachal
TTITLE14=Smile - Hugh Coltman
TTITLE15=Only Love Can Break Your Heart - Natalie Imbruglia
TTITLE16=In a Sentimental Mood - Klazz Brothers and Cuba Percussion
TTITLE17=Alles dreht sich - Stefan Gwildis
TTITLE18=Fly Me to the Moon (In Other Words) - Doris Day, Mort Garson and his Orchestra
TTITLE19=That's All - Curtis Stigers
EXTD=YEAR: 2016
EXTT0=
EXTT1=
EXTT2=
EXTT3=
EXTT4=
EXTT5=
EXTT6=
EXTT7=
EXTT8=
EXTT9=
EXTT10=
EXTT11=
EXTT12=
EXTT13=
EXTT14=
EXTT15=
EXTT16=
EXTT17=
EXTT18=
EXTT19=
PLAYORDER=
